<svg xmlns="http://www.w3.org/2000/svg" version="1.0" width="278.000000pt" height="298.000000pt" viewBox="0 0 278.000000 298.000000" preserveAspectRatio="xMidYMid meet">

<g transform="translate(0.000000,298.000000) scale(0.100000,-0.100000)" fill="#000000" stroke="none">
<path d="M1336 2887 c-37 -64 -113 -204 -119 -221 -17 -42 16 2 59 82 26 48 55 98 65 111 11 13 16 27 13 32 -3 5 -2 9 3 9 4 0 33 -35 63 -77 30 -42 70 -92 88 -112 l33 -36 -37 55 c-57 84 -137 190 -143 190 -3 0 -14 -15 -25 -33z"/>
<path d="M1369 2793 l-24 -28 28 24 c25 23 32 31 24 31 -2 0 -14 -12 -28 -27z"/>
<path d="M397 2013 c-12 -11 -7 -23 9 -23 8 0 12 -4 9 -10 -3 -5 -1 -10 4 -10 6 0 11 6 11 14 0 17 -24 38 -33 29z"/>
<path d="M370 1976 c0 -9 7 -16 16 -16 17 0 14 22 -4 28 -7 2 -12 -3 -12 -12z"/>
<path d="M389 1948 c-4 -15 -6 -38 -3 -38 2 0 8 9 14 20 7 14 7 20 0 20 -5 0 -10 -1 -11 -2z"/>
<path d="M232 1870 c-7 -11 -8 -20 -3 -20 9 0 24 30 18 36 -1 2 -8 -6 -15 -16z"/>
<path d="M2349 1693 c-13 -16 -12 -17 4 -4 9 7 17 15 17 17 0 8 -8 3 -21 -13z"/>
<path d="M493 1468 c-21 -27 -23 -36 -8 -34 8 1 21 8 28 16 10 12 9 12 -5 1 -20 -15 -25 -2 -6 17 7 7 9 12 6 12 -3 0 -10 -6 -15 -12z"/>
<path d="M328 1019 c-28 -16 -21 -30 7 -17 14 6 25 15 25 20 0 11 -11 10 -32 -3z"/>
<path d="M697 1385 c-10 -14 -13 -25 -7 -25 14 0 34 21 38 38 4 20 -12 13 -31 -13z"/>
<path d="M1202 926 c-24 -35 -27 -46 -12 -46 5 0 13 12 16 26 4 15 12 23 20 20 18 -7 25 6 10 20 -9 9 -18 4 -34 -20z"/>
<path d="M806 888 c3 -5 10 -6 15 -3 13 9 11 12 -6 12 -8 0 -12 -4 -9 -9z"/>
<path d="M2160 494 c-13 -13 -20 -24 -14 -24 12 0 50 38 43 44 -2 2 -15 -7 -29 -20z"/>
<path d="M1560 2631 c0 -6 4 -13 10 -16 6 -3 7 1 4 9 -7 18 -14 21 -14 7z"/>
<path d="M2204 2612 c10 -16 11 -222 1 -221 -6 1 -9 6 -7 12 2 6 -4 5 -12 -3 -18 -14 -22 0 -6 16 7 7 6 11 -5 11 -8 0 -13 -3 -10 -5 3 -3 0 -11 -6 -18 -14 -17 -4 -33 19 -29 31 5 37 -12 36 -99 -1 -47 2 -86 7 -86 9 0 11 357 2 403 -3 15 -10 27 -15 27 -5 0 -7 -4 -4 -8z"/>
<path d="M2155 2600 c-13 -6 -15 -9 -5 -9 8 0 22 4 30 9 18 12 2 12 -25 0z"/>
<path d="M1596 2578 c4 -7 16 -26 27 -41 16 -24 17 -30 5 -45 -11 -15 -11 -15 3 -5 12 10 18 9 32 -7 19 -23 23 -40 5 -22 -7 7 -22 12 -34 12 -12 0 -25 6 -27 13 -4 8 -6 7 -6 -3 -1 -14 74 -56 91 -52 4 1 12 -8 18 -21 11 -21 10 -21 -4 -3 -9 11 -16 16 -16 12 0 -5 -7 -3 -15 4 -21 17 -20 -3 2 -36 12 -19 18 -22 24 -12 5 7 9 9 10 3 4 -46 8 -57 24 -75 10 -11 15 -23 12 -27 -4 -3 -7 -1 -7 5 0 7 -6 12 -14 12 -8 0 -17 7 -20 16 -3 8 -10 12 -16 9 -5 -3 -10 -1 -10 4 0 6 -7 11 -15 11 -18 0 -19 11 -2 30 10 12 9 12 -5 1 -15 -12 -21 -10 -38 10 -10 13 -19 20 -20 15 0 -5 -9 -1 -20 9 -16 15 -20 15 -20 3 0 -8 11 -21 25 -28 14 -7 23 -16 20 -18 -9 -10 17 -31 31 -25 9 3 14 -1 14 -12 0 -9 5 -13 10 -10 6 3 10 0 10 -9 0 -8 -6 -17 -12 -20 -7 -3 -1 -3 14 0 18 4 33 0 43 -10 9 -9 23 -16 31 -16 9 0 12 -5 8 -12 -4 -7 -3 -8 4 -4 6 4 21 -3 32 -14 12 -12 24 -19 26 -17 3 3 -8 19 -25 36 -17 18 -31 34 -31 37 0 3 -9 19 -21 36 -22 31 -20 44 5 35 10 -4 13 -13 9 -23 -4 -12 -3 -15 5 -10 7 4 12 2 12 -5 0 -6 14 -27 30 -46 19 -21 30 -45 30 -63 0 -22 4 -28 15 -24 10 4 15 0 15 -11 0 -9 4 -14 10 -10 16 10 10 20 -129 235 -44 67 -142 200 -148 200 -2 0 -1 -6 3 -12z"/>
<path d="M2088 2573 c7 -3 16 -2 19 1 4 3 -2 6 -13 5 -11 0 -14 -3 -6 -6z"/>
<path d="M2177 2558 c-10 -11 -17 -24 -15 -30 2 -6 12 2 22 17 21 32 18 39 -7 13z"/>
<path d="M2035 2560 c-8 -13 5 -13 25 0 13 8 13 10 -2 10 -9 0 -20 -4 -23 -10z"/>
<path d="M2000 2550 c-13 -8 -12 -10 3 -10 9 0 17 5 17 10 0 12 -1 12 -20 0z"/>
<path d="M1355 2540 c4 -7 -104 -84 -328 -234 -32 -21 -56 -41 -53 -43 5 -5 131 78 289 190 54 38 101 67 103 64 3 -2 5 -81 6 -176 1 -94 5 -171 9 -171 5 0 9 76 9 176 0 18 8 38 20 49 11 10 20 25 20 33 0 12 3 12 15 2 14 -12 13 -17 -12 -42 -16 -17 -22 -28 -13 -26 8 2 14 -2 13 -8 -1 -6 5 -11 13 -11 12 0 12 3 0 16 -12 14 -12 18 0 29 13 12 19 8 14 -13 -1 -5 8 -1 19 9 21 19 17 51 -6 42 -8 -3 -11 -1 -8 4 9 14 21 12 40 -6 15 -15 15 -18 -2 -37 -10 -11 -13 -17 -6 -14 6 4 15 2 18 -4 4 -6 -2 -13 -14 -16 -25 -6 -28 -21 -4 -19 20 1 24 -22 9 -44 -9 -13 -9 -13 6 -2 16 13 18 35 5 48 -4 4 0 16 10 26 15 17 15 18 -1 18 -9 0 -14 5 -11 10 4 6 11 8 16 4 6 -3 13 3 16 15 3 11 9 19 13 16 4 -2 5 7 2 21 -3 18 -7 22 -13 13 -4 -7 -6 -16 -3 -20 11 -18 -15 -17 -36 1 -12 10 -27 21 -33 23 -9 3 -8 9 2 21 14 17 16 17 27 1 9 -12 21 -15 37 -11 19 4 25 0 33 -22 l10 -27 1 32 c1 28 -2 32 -35 38 -20 4 -41 10 -47 15 -13 11 -115 38 -137 37 -9 0 -15 -4 -13 -7z m75 -30 c0 -5 -5 -10 -11 -10 -5 0 -7 5 -4 10 3 6 8 10 11 10 2 0 4 -4 4 -10z m38 -18 c6 -18 -15 -14 -22 4 -4 10 -1 14 6 12 6 -2 14 -10 16 -16z m-20 -34 c6 -6 12 -15 12 -20 0 -5 -6 -6 -12 -1 -23 14 -36 11 -31 -6 2 -10 -2 -23 -10 -30 -13 -10 -15 -5 -14 34 0 41 2 45 21 39 12 -4 27 -11 34 -16z m37 -47 c3 -5 1 -12 -5 -16 -5 -3 -10 1 -10 9 0 18 6 21 15 7z"/>
<path d="M1240 2511 c-47 -16 -81 -29 -76 -30 11 -1 176 50 176 55 0 7 -14 3 -100 -25z"/>
<path d="M1938 2535 c-3 -3 -45 -17 -94 -31 -91 -26 -129 -42 -121 -50 6 -6 214 59 247 77 12 7 11 8 -6 9 -11 0 -23 -2 -26 -5z"/>
<path d="M2135 2510 c-3 -5 -1 -10 4 -10 6 0 11 5 11 10 0 6 -2 10 -4 10 -3 0 -8 -4 -11 -10z"/>
<path d="M2099 2458 c-13 -18 -55 -73 -95 -123 -74 -94 -100 -135 -87 -135 5 0 14 9 21 20 7 12 17 18 22 15 5 -3 7 0 4 8 -7 20 32 46 59 39 19 -5 20 -3 9 11 -11 13 -11 20 -1 39 22 42 52 77 60 72 5 -3 6 2 3 10 -7 17 11 22 21 6 7 -11 35 -2 35 12 0 6 -7 8 -15 5 -8 -4 -17 -1 -21 5 -5 7 -2 8 6 3 10 -6 12 -4 7 9 -6 14 -3 17 9 12 14 -5 15 -4 4 9 -16 20 -15 20 -41 -17z"/>
<path d="M2169 2463 c-13 -16 -12 -17 4 -4 9 7 17 15 17 17 0 8 -8 3 -21 -13z"/>
<path d="M1005 2449 c-4 -6 -4 -13 -1 -16 3 -4 6 -1 6 6 0 7 5 9 12 5 7 -4 8 -3 4 4 -9 15 -13 15 -21 1z"/>
<path d="M1617 2415 c9 -19 18 -33 20 -31 6 6 -19 66 -28 66 -5 0 -1 -16 8 -35z"/>
<path d="M1239 2383 c-13 -16 -12 -17 4 -4 9 7 17 15 17 17 0 8 -8 3 -21 -13z"/>
<path d="M2104 2373 c-21 -22 -25 -24 -20 -9 7 19 6 19 -13 2 -12 -11 -20 -29 -19 -42 3 -27 13 -31 22 -8 4 9 2 13 -5 8 -7 -4 -10 -1 -7 7 3 8 11 13 19 12 8 -1 24 12 37 28 30 37 21 38 -14 2z"/>
<path d="M858 2363 c7 -3 16 -2 19 1 4 3 -2 6 -13 5 -11 0 -14 -3 -6 -6z"/>
<path d="M2152 2331 c-16 -22 -27 -28 -44 -23 -20 5 -21 4 -9 -11 10 -13 18 -14 32 -6 10 5 19 14 19 19 0 6 6 10 14 10 19 0 27 13 17 28 -5 8 -14 3 -29 -17z"/>
<path d="M878 2333 c7 -3 16 -2 19 1 4 3 -2 6 -13 5 -11 0 -14 -3 -6 -6z"/>
<path d="M1160 2330 c-8 -5 -12 -12 -9 -15 4 -3 12 1 19 10 14 17 11 19 -10 5z"/>
<path d="M830 2309 c0 -9 -6 -20 -12 -22 -9 -4 -8 -6 2 -6 9 -1 25 6 36 14 12 8 25 11 29 7 5 -4 5 -2 2 4 -4 7 -18 14 -32 16 -19 4 -25 1 -25 -13z"/>
<path d="M1235 2310 c-3 -5 -2 -10 4 -10 5 0 13 5 16 10 3 6 2 10 -4 10 -5 0 -13 -4 -16 -10z"/>
<path d="M743 2304 c10 -11 57 -13 57 -3 0 5 -14 9 -32 9 -17 0 -28 -3 -25 -6z"/>
<path d="M722 2239 c-13 -23 -18 -38 -11 -34 9 6 11 3 6 -8 -3 -9 -2 -19 2 -21 5 -3 8 9 7 27 0 18 4 32 11 32 6 0 15 4 20 9 5 5 2 6 -6 1 -10 -6 -12 -2 -6 14 10 32 3 25 -23 -20z"/>
<path d="M765 2270 c3 -5 8 -10 11 -10 2 0 4 5 4 10 0 6 -5 10 -11 10 -5 0 -7 -4 -4 -10z"/>
<path d="M1990 2265 c-7 -9 -11 -17 -9 -20 3 -2 10 5 17 15 14 24 10 26 -8 5z"/>
<path d="M2133 2264 c-7 -7 -9 -15 -5 -17 4 -3 13 1 19 9 7 7 9 15 5 17 -4 3 -13 -1 -19 -9z"/>
<path d="M925 2224 l-30 -26 33 22 c17 12 32 23 32 26 0 7 -4 5 -35 -22z"/>
<path d="M2047 2214 c-9 -12 -17 -26 -17 -31 0 -4 5 0 11 10 5 9 19 17 29 17 22 0 27 15 7 23 -6 2 -20 -6 -30 -19z"/>
<path d="M1466 2222 c-2 -4 4 -8 14 -8 10 0 16 4 14 8 -3 4 -9 8 -14 8 -5 0 -11 -4 -14 -8z"/>
<path d="M2110 2214 c0 -8 5 -12 10 -9 6 3 10 10 10 16 0 5 -4 9 -10 9 -5 0 -10 -7 -10 -16z"/>
<path d="M2183 2214 c-3 -8 -11 -13 -17 -11 -7 3 -12 -4 -12 -14 0 -14 3 -15 14 -7 15 13 35 48 27 48 -3 0 -8 -7 -12 -16z"/>
<path d="M1896 2183 c-3 -3 40 -37 97 -75 225 -151 248 -168 280 -198 17 -16 38 -28 44 -25 7 2 12 1 10 -3 -1 -5 16 -24 38 -43 22 -18 46 -40 54 -47 20 -20 46 -10 48 18 2 24 2 24 -5 2 l-7 -22 -40 27 c-50 34 -67 50 -57 56 4 2 1 2 -5 1 -13 -3 -17 7 -14 37 1 8 -7 24 -18 33 -11 10 -18 23 -15 27 3 5 0 9 -5 9 -18 0 -12 -29 9 -50 26 -26 6 -38 -23 -13 -52 43 -68 63 -62 73 3 5 2 10 -4 10 -5 0 -11 -5 -13 -12 -3 -7 -10 -8 -17 -4 -10 7 -10 10 -1 16 8 5 7 9 -5 13 -9 4 -13 3 -10 -3 8 -13 -5 -13 -25 0 -12 8 -12 10 -1 10 12 0 12 3 -1 18 -31 35 -29 40 10 27 39 -14 48 -13 38 3 -3 6 -15 8 -26 5 -11 -3 -20 0 -20 6 0 6 -13 10 -29 9 -24 -2 -28 -5 -19 -15 6 -8 8 -16 4 -20 -3 -3 -6 -1 -6 5 0 7 -8 12 -18 12 -11 0 -27 10 -38 21 -19 22 -19 22 3 10 26 -13 33 -14 33 -2 0 5 -24 17 -53 25 -30 9 -70 27 -89 40 -20 13 -39 22 -42 19z"/>
<path d="M2216 2166 c3 -8 0 -17 -6 -21 -9 -6 -9 -9 1 -15 10 -7 10 -11 0 -24 -10 -12 -11 -16 -1 -16 7 0 10 -7 7 -15 -4 -8 -2 -17 4 -20 17 -11 0 -22 -28 -18 -25 4 -26 3 -9 -7 14 -9 23 -9 40 -1 17 10 34 7 91 -14 39 -15 65 -21 59 -15 -7 6 -40 22 -75 35 -58 21 -64 26 -65 51 -2 75 -5 94 -14 94 -5 0 -7 -6 -4 -14z"/>
<path d="M1660 2160 c-9 -6 -10 -10 -3 -10 6 0 15 5 18 10 8 12 4 12 -15 0z"/>
<path d="M1370 2143 c0 -13 5 -23 10 -23 13 0 13 11 0 30 -8 12 -10 11 -10 -7z"/>
<path d="M1871 2106 c-20 -50 -23 -66 -16 -129 3 -39 9 -76 13 -82 3 -5 5 -22 3 -37 -1 -16 2 -28 9 -28 6 0 10 10 9 23 -2 12 0 28 5 35 4 7 3 19 -4 27 -7 8 -14 39 -16 70 -3 44 -1 55 11 55 10 0 15 -10 16 -27 1 -43 10 -117 15 -122 2 -2 -1 -10 -7 -18 -9 -10 -8 -13 4 -13 18 0 32 31 17 40 -5 3 -12 49 -14 101 -2 52 -6 101 -9 109 -3 8 -7 24 -9 34 -2 13 -11 -1 -27 -38z m11 -38 c-7 -7 -12 -8 -12 -2 0 6 3 14 7 17 3 4 9 5 12 2 2 -3 -1 -11 -7 -17z"/>
<path d="M875 2134 c24 -19 386 -196 391 -191 2 2 -63 36 -144 77 -204 102 -270 133 -247 114z"/>
<path d="M2146 2135 c4 -8 10 -12 15 -9 14 8 10 24 -6 24 -9 0 -12 -6 -9 -15z"/>
<path d="M1694 2113 c3 -4 0 -13 -7 -22 -10 -14 -10 -14 3 -5 8 6 22 13 30 16 10 3 7 6 -9 11 -13 3 -20 3 -17 0z"/>
<path d="M1780 2113 c-20 -8 -140 -85 -140 -90 0 -6 114 57 142 79 24 18 24 20 -2 11z"/>
<path d="M1377 2078 c1 -18 2 -63 2 -100 1 -38 4 -68 9 -68 4 0 7 45 7 100 0 60 -4 100 -10 100 -5 0 -9 -15 -8 -32z"/>
<path d="M2160 2099 c0 -5 5 -7 10 -4 6 3 10 8 10 11 0 2 -4 4 -10 4 -5 0 -10 -5 -10 -11z"/>
<path d="M1785 2030 c-22 -11 -53 -24 -69 -30 -16 -5 -27 -12 -24 -15 6 -6 126 42 143 57 15 13 -7 8 -50 -12z"/>
<path d="M2255 2010 c10 -11 23 -20 28 -20 6 0 0 9 -13 20 -13 11 -25 20 -28 20 -3 0 3 -9 13 -20z"/>
<path d="M1480 1990 c-9 -6 -10 -10 -3 -10 6 0 15 5 18 10 8 12 4 12 -15 0z"/>
<path d="M2400 1984 c0 -8 7 -14 15 -14 9 0 35 -10 58 -21 23 -12 44 -22 47 -22 3 0 11 -2 18 -5 7 -2 15 -2 18 0 2 3 -10 11 -28 17 -18 7 -54 23 -80 35 -37 18 -48 20 -48 10z"/>
<path d="M800 1973 c0 -4 5 -15 10 -23 8 -13 10 -13 10 2 0 9 -4 20 -10 23 -5 3 -10 3 -10 -2z"/>
<path d="M1605 1954 c-51 -25 -45 -24 33 3 23 8 42 17 42 19 0 9 -28 1 -75 -22z"/>
<path d="M2386 1945 c8 -37 14 -45 14 -19 0 10 -5 26 -10 34 -8 11 -9 7 -4 -15z"/>
<path d="M1500 1950 c-9 -6 -10 -10 -3 -10 6 0 15 5 18 10 8 12 4 12 -15 0z"/>
<path d="M1131 1928 c-13 -21 -13 -22 1 -10 16 13 68 7 68 -8 0 -4 12 -7 28 -8 32 -1 87 -20 79 -28 -3 -3 -13 -1 -23 4 -14 8 -21 5 -31 -15 -17 -33 -17 -33 7 -30 26 4 38 17 16 17 -9 0 -15 4 -12 9 4 7 71 8 71 1 0 -6 47 -5 57 2 8 5 -1 8 -24 8 -20 0 -38 4 -40 9 -2 6 -167 71 -181 71 -1 0 -8 -10 -16 -22z"/>
<path d="M2020 1930 c-9 -6 -10 -10 -3 -10 6 0 15 5 18 10 8 12 4 12 -15 0z"/>
<path d="M814 1710 c0 -124 2 -174 3 -112 2 61 2 163 0 225 -1 61 -3 11 -3 -113z"/>
<path d="M1041 1916 c-9 -10 -7 -16 6 -27 10 -7 15 -9 10 -4 -4 4 0 17 10 27 14 16 14 18 1 18 -9 0 -21 -6 -27 -14z"/>
<path d="M1505 1915 c-25 -12 -26 -14 -5 -9 28 7 60 23 45 23 -5 0 -23 -6 -40 -14z"/>
<path d="M1930 1920 c0 -5 5 -10 10 -10 6 0 10 5 10 10 0 6 -4 10 -10 10 -5 0 -10 -4 -10 -10z"/>
<path d="M2600 1900 c19 -11 40 -19 45 -19 6 0 -6 8 -25 19 -19 11 -39 19 -45 19 -5 0 6 -8 25 -19z"/>
<path d="M670 1889 c0 -5 5 -7 10 -4 6 3 10 8 10 11 0 2 -4 4 -10 4 -5 0 -10 -5 -10 -11z"/>
<path d="M1380 1889 c0 -5 5 -7 10 -4 6 3 10 8 10 11 0 2 -4 4 -10 4 -5 0 -10 -5 -10 -11z"/>
<path d="M1955 1890 c-3 -5 -1 -10 4 -10 6 0 11 5 11 10 0 6 -2 10 -4 10 -3 0 -8 -4 -11 -10z"/>
<path d="M2451 1874 c0 -11 3 -14 6 -6 3 7 2 16 -1 19 -3 4 -6 -2 -5 -13z"/>
<path d="M2670 1868 c0 -8 -16 -29 -35 -48 -19 -19 -35 -39 -35 -44 0 -11 89 79 91 91 0 4 -4 9 -10 11 -6 2 -11 -3 -11 -10z"/>
<path d="M973 1858 c-6 -7 -9 -26 -8 -43 0 -16 -3 -35 -8 -42 -5 -7 -2 -23 7 -40 9 -16 15 -21 16 -12 0 8 -5 20 -12 27 -6 6 -9 15 -5 19 4 3 13 -1 20 -10 11 -15 12 -14 12 12 1 19 -3 27 -12 24 -7 -3 -13 0 -13 6 0 6 5 11 12 11 9 0 9 3 0 12 -17 17 -15 31 3 24 9 -3 15 0 15 9 0 18 -14 19 -27 3z"/>
<path d="M1090 1852 c-21 -17 -22 -20 -8 -46 13 -24 16 -26 27 -12 9 11 10 16 2 16 -6 0 -11 7 -11 15 0 8 4 15 9 15 5 0 11 7 15 15 7 20 -7 19 -34 -3z"/>
<path d="M2491 1854 c0 -11 3 -14 6 -6 3 7 2 16 -1 19 -3 4 -6 -2 -5 -13z"/>
<path d="M2512 1850 c0 -14 2 -19 5 -12 2 6 2 18 0 25 -3 6 -5 1 -5 -13z"/>
<path d="M1405 1852 c-4 -4 -11 -8 -16 -8 -5 -1 -13 -2 -19 -3 -5 0 -10 -6 -10 -12 0 -5 5 -7 10 -4 6 3 10 -1 10 -9 0 -23 17 -19 23 5 7 26 12 24 81 -26 l55 -40 -22 -25 -22 -25 26 23 c25 22 45 30 35 14 -3 -5 2 -9 11 -9 11 0 8 7 -12 23 -69 54 -143 102 -150 96z"/>
<path d="M2073 1826 c-6 -8 -8 -19 -3 -27 5 -7 6 -17 4 -21 -3 -4 5 -8 17 -8 21 0 21 0 -2 -21 l-24 -21 31 20 c20 14 30 29 30 46 0 19 -3 23 -13 14 -7 -5 -10 -15 -6 -20 3 -6 0 -9 -7 -6 -15 5 -23 38 -9 38 5 0 9 5 9 10 0 14 -13 12 -27 -4z"/>
<path d="M1214 1819 c-3 -6 -1 -16 5 -22 8 -8 11 -5 11 11 0 24 -5 28 -16 11z"/>
<path d="M1054 1801 c0 -11 5 -17 13 -14 10 4 11 9 2 19 -15 18 -15 18 -15 -5z"/>
<path d="M1280 1804 c0 -8 5 -12 10 -9 6 3 10 10 10 16 0 5 -4 9 -10 9 -5 0 -10 -7 -10 -16z"/>
<path d="M1881 1798 c0 -13 6 -49 12 -81 10 -46 15 -55 25 -45 11 11 12 10 7 -4 -5 -13 -2 -17 14 -15 11 1 23 7 25 14 3 7 -1 10 -9 7 -10 -4 -14 1 -13 18 3 48 -2 89 -11 84 -5 -3 -5 -21 -1 -41 5 -21 4 -38 -2 -41 -19 -12 -21 -2 -27 114 -2 22 -21 12 -20 -10z"/>
<path d="M1910 1806 c0 -7 7 -13 15 -13 8 0 15 4 15 8 0 4 -7 9 -15 13 -9 3 -15 0 -15 -8z"/>
<path d="M1252 1788 c-16 -16 -15 -28 1 -28 7 0 13 9 13 20 0 11 -1 20 -1 20 -1 0 -6 -5 -13 -12z"/>
<path d="M1360 1790 c0 -5 6 -10 13 -10 8 0 7 -4 -3 -10 -13 -9 -13 -10 0 -10 12 0 12 -2 1 -9 -10 -6 -10 -10 -1 -16 14 -9 19 -4 25 26 3 13 -1 27 -8 31 -17 11 -27 10 -27 -2z"/>
<path d="M1695 1789 c-4 -6 -5 -12 -2 -15 2 -3 7 2 10 11 7 17 1 20 -8 4z"/>
<path d="M2026 1785 c-12 -9 -15 -15 -7 -15 11 0 11 -3 0 -17 -7 -10 -1 -7 13 6 15 13 25 28 22 32 -6 11 -5 11 -28 -6z"/>
<path d="M1155 1767 c-20 -20 -20 -20 7 -15 17 3 29 0 32 -8 3 -8 10 -14 16 -14 6 0 8 5 5 10 -3 6 -1 10 5 10 6 0 8 5 5 10 -4 6 -11 8 -16 5 -5 -4 -9 -2 -9 3 0 19 -25 19 -45 -1z"/>
<path d="M1326 1773 c-6 -14 -5 -15 5 -6 7 7 10 15 7 18 -3 3 -9 -2 -12 -12z"/>
<path d="M1057 1754 c-10 -13 -22 -22 -26 -20 -5 3 -6 -7 -3 -22 3 -15 1 -23 -4 -19 -5 5 -10 13 -10 18 -1 5 -2 12 -3 15 -1 7 -26 -19 -66 -67 l-20 -24 21 18 c28 23 29 22 29 -20 0 -41 -18 -68 -37 -57 -7 4 -10 4 -6 -1 4 -4 -4 -16 -17 -27 -29 -23 -32 -43 -7 -53 14 -5 15 -4 5 6 -14 14 -17 30 -5 27 4 0 15 2 25 7 10 4 24 2 33 -6 9 -7 23 -14 32 -15 10 -1 25 -5 35 -9 13 -5 16 -3 12 7 -4 9 -17 14 -35 13 -22 -1 -29 3 -33 21 -2 13 -2 25 0 27 4 4 84 -33 93 -42 3 -3 16 -7 30 -8 l25 -2 -25 12 c-14 6 -33 22 -43 34 -18 23 -44 22 -30 0 4 -7 0 -6 -10 2 -18 14 -24 36 -7 26 6 -3 10 0 10 8 0 18 36 28 67 21 14 -4 23 -2 23 6 0 6 -4 8 -10 5 -6 -4 -7 1 -3 12 11 32 26 44 47 39 16 -4 24 2 33 21 7 15 10 29 7 32 -4 3 -9 0 -11 -6 -3 -7 -10 -13 -16 -13 -6 0 -19 -8 -30 -17 -20 -17 -20 -17 -14 2 5 15 0 12 -19 -10 -31 -34 -114 -89 -114 -75 0 5 10 15 22 21 36 19 50 37 46 61 -2 13 5 30 15 40 11 9 17 21 15 27 -1 5 -11 -2 -21 -15z m-54 -96 c-9 -10 -19 -15 -22 -12 -3 4 0 9 7 11 6 3 10 8 8 12 -3 4 1 8 9 8 13 0 12 -4 -2 -19z"/>
<path d="M1115 1770 c-3 -5 -1 -10 4 -10 6 0 11 5 11 10 0 6 -2 10 -4 10 -3 0 -8 -4 -11 -10z"/>
<path d="M2472 1760 c0 -14 2 -19 5 -12 2 6 2 18 0 25 -3 6 -5 1 -5 -13z"/>
<path d="M2135 1751 c-3 -5 -1 -12 5 -16 5 -3 10 1 10 9 0 18 -6 21 -15 7z"/>
<path d="M1421 1708 c-13 -22 -13 -23 6 -5 11 9 23 14 28 10 4 -5 5 -2 1 5 -10 18 -19 15 -35 -10z"/>
<path d="M1381 1712 c-1 -8 -6 -10 -13 -6 -8 5 -8 1 1 -10 10 -11 14 -36 12 -72 -2 -48 -1 -53 16 -48 15 5 16 4 2 -5 -9 -6 -15 -20 -13 -33 1 -13 3 -30 3 -38 1 -12 3 -13 10 -1 6 9 11 10 15 2 4 -6 0 -14 -8 -17 -12 -5 -15 -19 -13 -59 1 -40 5 -51 14 -43 8 7 9 17 2 35 -6 18 -6 30 2 39 6 8 8 14 3 14 -4 0 3 11 16 25 24 26 47 34 34 13 -5 -9 -2 -8 9 1 10 8 15 16 12 19 -3 3 0 11 6 19 6 7 8 13 4 13 -4 0 -1 8 6 17 8 10 0 6 -17 -7 -17 -14 -28 -27 -24 -30 5 -3 -2 -13 -15 -22 -30 -23 -50 -3 -36 35 5 14 7 28 4 31 -4 3 2 15 12 26 14 16 20 17 27 8 5 -9 8 -10 8 -1 0 21 -17 23 -35 3 -26 -29 -33 -25 -29 19 2 22 0 50 -5 63 -6 13 -10 17 -10 10z"/>
<path d="M1587 1706 c-4 -10 -1 -13 8 -10 8 3 24 -1 37 -10 12 -9 27 -16 33 -16 5 0 -7 11 -27 25 -43 29 -44 29 -51 11z"/>
<path d="M1676 1703 c-6 -14 -5 -15 5 -6 7 7 10 15 7 18 -3 3 -9 -2 -12 -12z"/>
<path d="M2452 1695 c0 -16 2 -22 5 -12 2 9 2 23 0 30 -3 6 -5 -1 -5 -18z"/>
<path d="M2070 1679 c0 -5 5 -7 10 -4 6 3 10 8 10 11 0 2 -4 4 -10 4 -5 0 -10 -5 -10 -11z"/>
<path d="M1413 1659 c-2 -23 3 -25 10 -4 4 8 3 16 -1 19 -4 3 -9 -4 -9 -15z"/>
<path d="M1569 1663 c-13 -16 -12 -17 4 -4 9 7 17 15 17 17 0 8 -8 3 -21 -13z"/>
<path d="M1118 1663 c6 -2 9 -10 6 -15 -4 -7 -2 -8 5 -4 13 9 5 26 -12 25 -9 0 -8 -2 1 -6z"/>
<path d="M1695 1640 c10 -11 20 -20 23 -20 3 0 -3 9 -13 20 -10 11 -20 20 -23 20 -3 0 3 -9 13 -20z"/>
<path d="M1910 1619 c0 -16 3 -29 8 -29 4 0 8 -26 10 -57 3 -61 15 -77 44 -62 21 11 25 34 4 26 -8 -3 -20 1 -27 9 -10 12 -10 15 1 12 28 -6 7 118 -21 125 -15 4 -19 0 -19 -24z"/>
<path d="M1593 1625 c0 -8 4 -12 9 -9 5 3 6 10 3 15 -9 13 -12 11 -12 -6z"/>
<path d="M2095 1630 c8 -13 46 -19 42 -7 -2 7 -13 13 -25 13 -12 1 -19 -2 -17 -6z"/>
<path d="M1238 1623 c7 -3 16 -2 19 1 4 3 -2 6 -13 5 -11 0 -14 -3 -6 -6z"/>
<path d="M453 1605 c-7 -8 -9 -16 -5 -19 4 -3 13 4 20 15 14 22 3 25 -15 4z"/>
<path d="M937 1613 c-12 -12 -7 -22 8 -17 8 4 15 10 15 15 0 11 -14 12 -23 2z"/>
<path d="M1120 1615 c0 -6 63 -35 75 -35 4 0 0 6 -7 13 -14 14 -68 31 -68 22z"/>
<path d="M1459 1593 l-24 -28 27 24 c16 13 32 20 39 16 8 -5 10 -4 5 3 -11 18 -20 15 -47 -15z"/>
<path d="M1768 1581 c24 -22 46 -41 49 -41 4 0 15 -8 26 -17 14 -13 19 -14 15 -4 -2 8 -33 34 -69 59 l-64 45 43 -42z"/>
<path d="M2305 1585 c-23 -31 -29 -34 -43 -23 -15 11 -15 11 -5 -3 7 -9 10 -18 7 -21 -3 -3 13 -5 34 -4 38 1 39 2 30 29 -7 19 -7 32 2 42 7 8 10 15 7 15 -2 0 -17 -16 -32 -35z"/>
<path d="M2093 1577 c-18 -12 -32 -26 -33 -31 0 -5 6 -3 13 3 8 6 17 8 20 4 4 -3 7 -1 7 5 0 7 5 12 11 12 6 0 17 7 25 15 23 23 -4 18 -43 -8z"/>
<path d="M1132 1576 c7 -7 19 -11 26 -8 11 4 11 6 0 13 -7 5 -19 9 -26 9 -10 0 -10 -3 0 -14z"/>
<path d="M2154 1579 c-3 -6 -2 -15 3 -20 5 -5 9 -1 9 11 0 23 -2 24 -12 9z"/>
<path d="M1631 1560 c-13 -11 -19 -20 -14 -20 6 0 18 9 28 20 23 25 17 25 -14 0z"/>
<path d="M1080 1560 c0 -5 5 -10 11 -10 5 0 7 5 4 10 -3 6 -8 10 -11 10 -2 0 -4 -4 -4 -10z"/>
<path d="M1110 1550 c0 -5 5 -10 11 -10 5 0 7 5 4 10 -3 6 -8 10 -11 10 -2 0 -4 -4 -4 -10z"/>
<path d="M1168 1548 c-16 -5 -28 -16 -28 -23 0 -14 68 -50 77 -41 3 2 -11 12 -31 20 -40 17 -48 27 -14 18 14 -3 19 -2 14 7 -4 7 2 15 16 20 31 13 0 12 -34 -1z"/>
<path d="M1735 1550 c-3 -5 -2 -10 4 -10 5 0 13 5 16 10 3 6 2 10 -4 10 -5 0 -13 -4 -16 -10z"/>
<path d="M2136 1542 c-3 -5 1 -9 9 -9 8 0 12 4 9 9 -3 4 -7 8 -9 8 -2 0 -6 -4 -9 -8z"/>
<path d="M945 1510 c-3 -5 1 -10 10 -10 9 0 13 5 10 10 -3 6 -8 10 -10 10 -2 0 -7 -4 -10 -10z"/>
<path d="M1485 1500 c-10 -11 -15 -20 -10 -20 4 0 1 -8 -6 -17 -13 -16 -12 -17 3 -5 10 8 17 17 16 20 -2 20 3 25 12 12 7 -12 9 -10 7 8 -2 27 0 26 -22 2z"/>
<path d="M2005 1509 c-11 -16 -1 -19 13 -3 7 8 8 14 3 14 -5 0 -13 -5 -16 -11z"/>
<path d="M1065 1500 c3 -5 8 -10 11 -10 2 0 4 5 4 10 0 6 -5 10 -11 10 -5 0 -7 -4 -4 -10z"/>
<path d="M1107 1504 c-11 -12 5 -33 20 -27 10 4 14 2 9 -5 -10 -16 11 -25 31 -12 11 7 12 10 3 7 -8 -2 -24 7 -36 20 -11 12 -24 20 -27 17z"/>
<path d="M1555 1500 c-3 -6 1 -7 9 -4 18 7 21 14 7 14 -6 0 -13 -4 -16 -10z"/>
<path d="M1880 1502 c0 -6 7 -15 17 -20 14 -8 13 -12 -11 -27 -18 -12 -30 -14 -39 -7 -9 7 -20 4 -40 -14 -32 -28 -28 -30 13 -9 17 9 30 12 30 8 0 -5 -10 -13 -22 -18 -29 -13 -36 -35 -9 -28 12 3 19 9 16 13 -3 5 5 12 17 15 13 4 31 14 40 22 16 14 17 13 14 -21 -2 -29 1 -36 15 -36 10 0 20 -6 22 -12 4 -8 6 -7 6 3 1 9 -6 22 -14 29 -11 9 -14 22 -10 40 4 19 0 32 -20 50 -14 13 -25 18 -25 12z"/>
<path d="M1277 1479 c7 -7 15 -10 18 -7 3 3 -2 9 -12 12 -14 6 -15 5 -6 -5z"/>
<path d="M1504 1465 c-10 -8 -14 -15 -8 -15 6 0 17 7 24 15 16 19 9 19 -16 0z"/>
<path d="M2065 1459 c-4 -6 -5 -12 -2 -15 2 -3 7 2 10 11 7 17 1 20 -8 4z"/>
<path d="M935 1450 c3 -5 11 -10 16 -10 6 0 7 5 4 10 -3 6 -11 10 -16 10 -6 0 -7 -4 -4 -10z"/>
<path d="M1535 1440 c-8 -13 9 -20 24 -11 10 6 9 10 -3 14 -8 3 -18 2 -21 -3z"/>
<path d="M1947 1443 c-4 -6 5 -18 18 -27 26 -17 45 -14 45 7 0 8 -3 8 -11 0 -9 -9 -16 -6 -29 9 -10 13 -19 17 -23 11z"/>
<path d="M1448 1416 c-6 -12 -19 -31 -30 -42 -15 -16 -16 -24 -7 -29 7 -5 10 -4 6 2 -4 6 2 18 13 28 17 15 23 16 33 5 8 -9 9 -11 0 -6 -6 3 -15 1 -20 -6 -10 -16 -14 -42 -5 -33 4 4 7 11 7 17 0 6 14 12 30 14 28 3 29 2 11 -11 -11 -8 -20 -25 -21 -39 -1 -23 0 -23 25 -8 l25 16 -19 -22 c-11 -12 -14 -22 -9 -22 16 0 35 28 28 40 -4 6 -13 9 -20 6 -25 -9 -23 6 3 31 15 13 22 22 15 19 -19 -10 -22 17 -4 39 11 14 8 13 -11 -4 -15 -12 -31 -20 -37 -17 -15 10 -2 36 15 29 8 -3 14 -1 14 4 0 18 -31 10 -42 -11z"/>
<path d="M1135 1410 c-4 -6 3 -10 14 -10 25 0 27 6 6 13 -8 4 -17 2 -20 -3z"/>
<path d="M2350 1406 c0 -2 7 -7 16 -10 8 -3 12 -2 9 4 -6 10 -25 14 -25 6z"/>
<path d="M2010 1376 c0 -9 9 -21 20 -28 11 -7 20 -23 20 -35 0 -16 6 -23 20 -23 23 0 27 15 5 24 -8 3 -14 9 -13 13 3 10 -22 47 -39 57 -8 4 -13 1 -13 -8z"/>
<path d="M1827 1369 c7 -7 15 -10 18 -7 3 3 -2 9 -12 12 -14 6 -15 5 -6 -5z"/>
<path d="M2240 1369 c0 -5 5 -7 10 -4 6 3 10 8 10 11 0 2 -4 4 -10 4 -5 0 -10 -5 -10 -11z"/>
<path d="M1575 1360 c-3 -6 1 -7 9 -4 18 7 21 14 7 14 -6 0 -13 -4 -16 -10z"/>
<path d="M1745 1360 c-3 -6 1 -7 9 -4 18 7 21 14 7 14 -6 0 -13 -4 -16 -10z"/>
<path d="M1860 1358 c0 -5 9 -8 20 -8 17 0 18 -3 8 -19 -7 -11 -18 -17 -27 -13 -14 5 -14 3 -2 -11 7 -9 20 -17 29 -17 13 0 13 -2 -1 -18 -10 -10 -17 -24 -17 -30 0 -6 -7 -18 -16 -26 -14 -15 -14 -16 0 -16 9 0 16 -4 16 -10 0 -5 -7 -10 -16 -10 -8 0 -12 -5 -9 -10 4 -6 0 -22 -9 -35 -10 -15 -12 -26 -6 -30 7 -4 7 -13 0 -25 -5 -10 -15 -41 -21 -69 -11 -54 -19 -61 -39 -36 -7 8 -18 15 -24 15 -6 0 3 -11 19 -24 17 -13 27 -28 23 -32 -4 -4 -14 -1 -23 6 -19 16 -20 2 0 -20 12 -14 13 -23 3 -51 -14 -43 -29 -53 -45 -32 -12 15 -15 15 -36 -5 -15 -14 -27 -18 -37 -12 -20 13 6 43 31 35 11 -4 19 -5 19 -3 0 6 -180 188 -185 188 -11 0 -3 -11 30 -46 19 -19 35 -42 35 -50 0 -9 5 -12 10 -9 6 3 10 -2 10 -12 0 -15 2 -16 11 -3 9 13 10 13 6 0 -2 -8 -10 -15 -18 -15 -14 0 -25 -15 -11 -16 17 -1 21 -41 6 -62 l-16 -22 8 25 c6 22 5 23 -9 12 -10 -9 -17 -10 -22 -2 -3 5 1 13 9 16 9 3 16 11 16 16 0 6 -7 8 -15 4 -13 -5 -14 -2 -4 15 11 22 7 35 -10 25 -6 -4 -8 -13 -4 -21 3 -8 0 -15 -7 -15 -6 0 -9 -4 -6 -9 10 -15 -19 -60 -41 -64 -24 -4 -31 7 -12 18 5 4 9 21 7 38 -3 27 0 32 18 30 11 -1 21 3 22 10 0 7 4 23 7 37 5 19 4 22 -4 10 -10 -14 -13 -11 -15 19 -1 8 -9 16 -19 18 -9 1 -25 5 -34 7 -10 2 -24 -1 -30 -7 -9 -6 -13 -6 -13 1 0 6 -8 13 -17 15 -17 4 -17 5 0 6 9 0 17 6 17 12 0 5 -5 7 -12 3 -7 -5 -9 -2 -6 7 6 17 -28 24 -37 8 -3 -5 1 -6 9 -3 28 11 17 -11 -12 -24 -26 -11 -41 -42 -20 -42 4 0 8 -5 8 -11 0 -6 -7 -9 -15 -5 -9 3 -15 0 -15 -10 0 -8 -4 -12 -10 -9 -6 4 -6 -3 0 -21 8 -20 7 -32 -5 -50 -17 -26 -19 -34 -7 -34 10 0 33 61 26 71 -3 5 0 9 5 9 14 0 14 -11 1 -46 -8 -19 -8 -30 0 -38 7 -7 10 -6 10 3 0 7 5 9 10 6 6 -3 10 -13 10 -22 0 -11 -6 -14 -21 -10 -21 6 -36 -14 -24 -33 4 -7 13 -5 27 5 16 11 25 12 35 3 16 -13 17 0 4 36 -9 22 -8 24 10 21 16 -3 19 0 14 13 -3 9 -7 21 -8 27 -1 5 -8 16 -15 24 -10 10 -11 16 -2 21 9 5 9 9 1 14 -10 6 -15 -6 -12 -26 0 -5 -3 -8 -9 -8 -5 0 -10 5 -10 10 0 6 -7 10 -16 10 -8 0 -12 5 -9 10 3 6 15 10 26 10 20 0 26 15 9 25 -15 9 -12 25 5 25 8 0 15 -4 15 -9 0 -5 12 -12 28 -14 l27 -4 -27 -2 c-16 0 -28 -6 -28 -12 0 -6 7 -9 15 -5 17 6 20 -5 5 -20 -7 -7 -6 -19 2 -37 16 -33 22 -34 36 -4 7 15 11 17 11 6 1 -9 -11 -33 -25 -54 -32 -47 -22 -55 59 -47 44 4 58 2 53 -6 -4 -7 -3 -12 3 -12 5 0 12 6 14 13 4 9 7 9 15 -1 7 -10 11 -10 22 3 7 8 21 15 32 15 17 0 18 -3 8 -15 -7 -8 -18 -15 -25 -15 -7 0 -18 -6 -24 -14 -6 -7 -22 -11 -35 -9 -13 3 -27 0 -31 -6 -4 -8 3 -11 22 -10 15 2 39 -1 52 -5 21 -7 23 -6 18 13 -3 14 0 21 9 21 7 0 18 8 23 19 11 19 81 35 81 18 0 -5 7 -4 15 3 12 10 15 10 15 -4 0 -9 5 -16 11 -16 6 0 9 9 6 19 -3 14 2 20 20 24 18 3 23 1 20 -12 -2 -9 -8 -15 -14 -14 -21 4 -23 -27 -3 -39 11 -7 20 -24 21 -38 0 -14 3 -19 6 -11 4 9 19 -2 49 -35 27 -31 39 -53 33 -58 -5 -6 -9 -14 -9 -20 0 -5 6 -1 14 9 13 18 15 17 46 -18 18 -20 36 -37 41 -37 11 0 -11 40 -31 57 -10 9 -11 12 -2 13 6 0 12 4 12 10 0 5 -7 7 -15 4 -10 -4 -15 0 -15 11 0 9 -5 13 -11 9 -7 -4 -24 7 -40 25 -23 27 -27 39 -24 74 3 29 1 37 -5 27 -5 -8 -10 -11 -10 -6 0 6 -5 5 -11 -1 -11 -11 -39 -7 -39 6 0 14 41 51 51 46 5 -4 9 1 9 9 0 17 -12 21 -24 9 -4 -5 -21 -8 -37 -8 -24 0 -28 3 -23 20 4 11 10 24 15 29 5 6 9 19 9 30 0 18 2 19 11 6 8 -12 9 -11 5 5 -4 15 2 25 24 40 17 11 30 26 30 34 0 11 -4 11 -18 -2 -10 -10 -22 -17 -25 -17 -12 0 -2 24 14 35 33 21 119 87 119 91 0 9 -57 -26 -89 -55 -19 -17 -36 -31 -37 -31 -1 0 3 11 9 25 7 14 15 25 20 25 4 0 7 5 7 11 0 5 -4 7 -10 4 -16 -10 -12 6 8 29 16 20 16 20 0 7 -23 -17 -23 -10 2 34 11 19 20 37 20 40 0 3 0 18 0 34 0 16 6 36 14 44 9 9 11 19 6 28 -6 9 -3 20 7 31 9 10 13 21 10 25 -10 9 -67 10 -67 1z m-345 -427 c0 -8 -7 -16 -15 -18 -12 -4 -12 -3 -2 5 11 7 8 11 -9 15 -28 7 -39 -1 -19 -13 13 -8 13 -10 0 -10 -9 0 -21 5 -28 12 -9 9 -12 9 -13 -2 -1 -8 -1 -19 0 -23 1 -5 -3 -6 -9 -2 -6 3 -9 9 -7 13 2 4 7 15 10 25 6 15 15 18 49 15 28 -2 43 -8 43 -17z m125 -81 c-7 -22 -19 -40 -27 -40 -10 0 -11 5 -3 19 5 11 15 23 20 26 6 3 10 16 9 28 0 21 -1 21 -11 -3 -6 -15 -12 -20 -15 -12 -7 19 18 45 30 33 7 -7 6 -24 -3 -51z m-172 -27 c-6 -7 -18 -13 -27 -13 -14 1 -14 2 -1 13 8 7 15 18 16 25 4 53 6 56 14 22 5 -22 5 -40 -2 -47z m86 -14 c-3 -5 -10 -7 -15 -3 -5 3 -7 10 -3 15 3 5 10 7 15 3 5 -3 7 -10 3 -15z m156 11 c0 -5 -4 -10 -10 -10 -5 0 -10 5 -10 10 0 6 5 10 10 10 6 0 10 -4 10 -10z m150 -79 c0 -6 -4 -13 -10 -16 -5 -3 -10 1 -10 9 0 9 5 16 10 16 6 0 10 -4 10 -9z"/>
<path d="M2381 1365 c1 -19 18 -51 18 -35 0 8 -4 22 -9 30 -5 8 -9 11 -9 5z"/>
<path d="M2162 1333 c-26 -39 -34 -53 -28 -53 2 0 14 16 27 36 19 32 24 35 34 21 9 -12 14 -14 23 -5 9 9 12 9 12 -1 0 -7 4 -10 9 -7 4 3 7 -8 5 -24 -2 -17 1 -30 7 -30 6 0 9 9 6 20 -3 10 0 18 5 17 6 -1 12 3 15 9 3 10 -32 26 -62 29 -5 0 -15 4 -22 8 -7 4 -19 -4 -31 -20z"/>
<path d="M1220 1340 c8 -5 20 -10 25 -10 6 0 3 5 -5 10 -8 5 -19 10 -25 10 -5 0 -3 -5 5 -10z"/>
<path d="M2010 1313 c13 -24 27 -43 31 -43 11 0 -19 56 -38 71 -12 10 -10 2 7 -28z"/>
<path d="M1398 1308 c-4 -30 2 -78 11 -78 4 0 6 23 6 50 0 51 -11 68 -17 28z"/>
<path d="M1633 1318 c-21 -27 -24 -38 -10 -32 8 3 17 14 20 25 6 22 3 24 -10 7z"/>
<path d="M2420 1320 c0 -5 5 -10 10 -10 6 0 10 5 10 10 0 6 -4 10 -10 10 -5 0 -10 -4 -10 -10z"/>
<path d="M1287 1309 c7 -7 15 -10 18 -7 3 3 -2 9 -12 12 -14 6 -15 5 -6 -5z"/>
<path d="M2215 1310 c-3 -5 -1 -10 4 -10 6 0 11 5 11 10 0 6 -2 10 -4 10 -3 0 -8 -4 -11 -10z"/>
<path d="M815 1300 c4 -6 11 -8 16 -5 14 9 11 15 -7 15 -8 0 -12 -5 -9 -10z"/>
<path d="M1812 1295 c-10 -12 -10 -15 2 -15 7 0 16 7 20 15 7 19 -5 19 -22 0z"/>
<path d="M2169 1283 c-13 -16 -12 -17 4 -4 9 7 17 15 17 17 0 8 -8 3 -21 -13z"/>
<path d="M1330 1286 c0 -2 7 -7 16 -10 8 -3 12 -2 9 4 -6 10 -25 14 -25 6z"/>
<path d="M1495 1265 c-16 -14 -25 -25 -19 -25 6 0 21 11 34 25 30 32 24 31 -15 0z"/>
<path d="M1575 1270 c-3 -5 -2 -10 4 -10 5 0 13 5 16 10 3 6 2 10 -4 10 -5 0 -13 -4 -16 -10z"/>
<path d="M2090 1268 c0 -10 5 -18 10 -18 6 0 10 -6 10 -14 0 -15 67 -76 83 -76 6 0 7 3 4 6 -3 4 -2 15 4 26 9 17 8 18 -8 10 -24 -13 -79 28 -70 53 5 10 3 14 -4 9 -6 -4 -15 0 -20 7 -7 11 -9 10 -9 -3z"/>
<path d="M2050 1251 c0 -5 5 -13 10 -16 6 -3 10 -2 10 4 0 5 -4 13 -10 16 -5 3 -10 2 -10 -4z"/>
<path d="M2376 1241 c4 -17 3 -21 -6 -16 -9 6 -11 4 -5 -4 5 -9 11 -9 17 -3 7 7 6 16 -1 29 -11 16 -11 15 -5 -6z"/>
<path d="M1923 1233 c-7 -3 -13 -11 -13 -20 0 -12 2 -12 16 2 18 17 16 25 -3 18z"/>
<path d="M2497 1199 c6 -49 17 -67 28 -48 5 8 4 10 -4 5 -8 -6 -10 -1 -5 18 3 15 0 33 -9 47 -15 20 -15 19 -10 -22z"/>
<path d="M1595 1220 c4 -6 11 -8 16 -5 14 9 11 15 -7 15 -8 0 -12 -5 -9 -10z"/>
<path d="M2312 1218 c3 -7 10 -13 17 -13 7 0 19 -9 27 -19 8 -11 14 -16 14 -10 -1 15 -23 40 -43 47 -13 5 -17 3 -15 -5z"/>
<path d="M980 1209 c0 -5 5 -7 10 -4 6 3 10 8 10 11 0 2 -4 4 -10 4 -5 0 -10 -5 -10 -11z"/>
<path d="M1265 1200 c-3 -6 1 -7 9 -4 18 7 21 14 7 14 -6 0 -13 -4 -16 -10z"/>
<path d="M1780 1200 c0 -5 5 -10 10 -10 6 0 10 5 10 10 0 6 -4 10 -10 10 -5 0 -10 -4 -10 -10z"/>
<path d="M2390 1201 c0 -6 4 -13 10 -16 6 -3 7 1 4 9 -7 18 -14 21 -14 7z"/>
<path d="M1659 1187 c6 -8 9 -16 6 -19 -3 -2 12 -20 31 -39 25 -23 32 -27 23 -11 -8 12 -17 22 -21 22 -5 0 -8 8 -8 18 0 19 -18 42 -33 42 -5 0 -4 -6 2 -13z"/>
<path d="M1752 1184 c10 -10 20 -15 24 -12 3 4 -5 12 -18 18 -22 12 -22 12 -6 -6z"/>
<path d="M1520 1186 c0 -2 7 -9 15 -16 9 -7 15 -8 15 -2 0 5 -7 12 -15 16 -8 3 -15 4 -15 2z"/>
<path d="M1440 1173 c0 -5 17 -21 38 -37 l37 -29 -34 36 c-36 39 -41 42 -41 30z"/>
<path d="M1145 1160 c-3 -5 -2 -10 4 -10 5 0 13 5 16 10 3 6 2 10 -4 10 -5 0 -13 -4 -16 -10z"/>
<path d="M1613 1151 c3 -15 -1 -21 -17 -24 -21 -4 -21 -4 1 -6 28 -1 50 34 27 43 -13 5 -15 2 -11 -13z"/>
<path d="M1943 1155 c-3 -9 -3 -18 -1 -21 3 -3 8 4 11 16 6 23 -1 27 -10 5z"/>
<path d="M1080 1140 c-9 -6 -10 -10 -3 -10 6 0 15 5 18 10 8 12 4 12 -15 0z"/>
<path d="M1645 1120 c-3 -5 -1 -10 4 -10 6 0 11 -5 11 -10 0 -7 -7 -7 -20 0 -11 6 -26 7 -33 3 -8 -5 -2 -9 17 -13 16 -3 31 -12 33 -20 4 -13 3 -13 -6 0 -5 8 -12 12 -15 9 -3 -3 6 -16 21 -30 18 -16 22 -17 13 -5 -14 18 -13 19 4 13 17 -7 17 -6 5 9 -8 9 -12 27 -11 40 3 24 -11 33 -23 14z"/>
<path d="M1010 1109 c0 -5 5 -7 10 -4 6 3 10 8 10 11 0 2 -4 4 -10 4 -5 0 -10 -5 -10 -11z"/>
<path d="M1750 1116 c0 -2 7 -7 16 -10 8 -3 12 -2 9 4 -6 10 -25 14 -25 6z"/>
<path d="M1060 1089 c0 -5 5 -7 10 -4 6 3 10 8 10 11 0 2 -4 4 -10 4 -5 0 -10 -5 -10 -11z"/>
<path d="M1588 1078 c13 -14 19 -27 13 -29 -10 -4 84 -109 97 -109 3 0 -15 22 -41 48 -28 28 -46 54 -43 63 3 8 -6 22 -22 33 l-27 19 23 -25z"/>
<path d="M1190 1069 c0 -5 5 -7 10 -4 6 3 10 8 10 11 0 2 -4 4 -10 4 -5 0 -10 -5 -10 -11z"/>
<path d="M1728 1051 c3 -9 1 -12 -6 -7 -7 4 -12 3 -12 -2 0 -5 11 -14 24 -20 25 -11 30 -2 13 25 -4 6 -1 13 5 16 7 3 3 4 -8 4 -15 -1 -20 -6 -16 -16z"/>
<path d="M674 1010 c-26 -39 -49 -46 -38 -12 5 14 4 15 -5 2 -15 -20 -14 -27 4 -34 9 -3 24 3 36 15 19 19 39 18 39 -2 0 -6 -5 -7 -10 -4 -6 4 -9 2 -8 -4 2 -5 -6 -16 -17 -25 -20 -15 -20 -15 2 -11 15 2 28 -5 42 -23 11 -15 21 -22 21 -16 0 6 -7 17 -15 24 -20 17 -8 34 13 18 15 -12 16 -11 3 5 -10 13 -17 15 -27 6 -10 -8 -14 -8 -14 -1 0 6 4 13 9 17 6 3 9 14 8 25 -1 10 -4 17 -8 14 -4 -2 -10 0 -14 6 -3 5 2 10 12 11 11 0 13 3 5 6 -6 2 -10 9 -6 14 3 5 3 9 0 9 -3 0 -18 -18 -32 -40z"/>
<path d="M775 997 c-14 -16 -18 -47 -7 -47 5 0 15 7 22 15 7 8 9 15 4 15 -4 0 1 7 12 15 19 14 19 14 -1 14 -11 0 -24 -5 -30 -12z"/>
<path d="M1640 955 c53 -53 60 -60 60 -51 0 7 -101 106 -108 106 -4 0 18 -25 48 -55z"/>
<path d="M890 990 c0 -5 4 -10 10 -10 5 0 6 -7 3 -17 -4 -11 -3 -14 5 -9 8 5 11 0 8 -16 -3 -13 -5 -26 -5 -30 -1 -5 -4 -7 -8 -5 -9 2 -13 -6 -13 -25 0 -7 8 -2 17 12 17 24 26 103 11 94 -4 -3 -8 0 -8 5 0 6 -4 11 -10 11 -5 0 -10 -4 -10 -10z"/>
<path d="M877 953 c-4 -3 -7 -11 -7 -17 0 -6 5 -5 12 2 6 6 9 14 7 17 -3 3 -9 2 -12 -2z"/>
<path d="M1550 939 c0 -5 5 -7 10 -4 6 3 10 8 10 11 0 2 -4 4 -10 4 -5 0 -10 -5 -10 -11z"/>
<path d="M626 928 c3 -5 10 -6 15 -3 13 9 11 12 -6 12 -8 0 -12 -4 -9 -9z"/>
<path d="M575 920 c-3 -6 1 -7 9 -4 18 7 21 14 7 14 -6 0 -13 -4 -16 -10z"/>
<path d="M656 902 c-3 -5 1 -9 9 -9 8 0 12 4 9 9 -3 4 -7 8 -9 8 -2 0 -6 -4 -9 -8z"/>
<path d="M1710 906 c0 -2 7 -9 15 -16 13 -11 14 -10 9 4 -5 14 -24 23 -24 12z"/>
<path d="M1500 849 c0 -5 5 -7 10 -4 6 3 10 8 10 11 0 2 -4 4 -10 4 -5 0 -10 -5 -10 -11z"/>
<path d="M1870 811 c0 -6 4 -13 10 -16 6 -3 7 1 4 9 -7 18 -14 21 -14 7z"/>
<path d="M845 780 c4 -6 11 -8 16 -5 14 9 11 15 -7 15 -8 0 -12 -5 -9 -10z"/>
<path d="M927 779 c7 -7 15 -10 18 -7 3 3 -2 9 -12 12 -14 6 -15 5 -6 -5z"/>
<path d="M1956 773 c-6 -14 -5 -15 5 -6 7 7 10 15 7 18 -3 3 -9 -2 -12 -12z"/>
<path d="M1395 760 c-3 -5 1 -10 10 -10 9 0 13 5 10 10 -3 6 -8 10 -10 10 -2 0 -7 -4 -10 -10z"/>
<path d="M1444 755 c-19 -14 -19 -14 1 -15 17 0 18 -2 5 -11 -11 -8 -9 -9 10 -4 36 10 48 24 30 35 -20 13 -23 12 -46 -5z"/>
<path d="M1912 745 c-8 -18 -8 -25 -1 -25 6 0 8 -7 5 -17 -4 -10 -4 -14 1 -10 6 7 14 77 8 77 -1 0 -7 -11 -13 -25z"/>
<path d="M708 753 c7 -3 16 -2 19 1 4 3 -2 6 -13 5 -11 0 -14 -3 -6 -6z"/>
<path d="M875 738 l-20 -20 33 16 c33 17 41 26 20 25 -7 0 -22 -9 -33 -21z"/>
<path d="M1630 745 c-8 -9 -8 -15 -2 -15 12 0 26 19 19 26 -2 2 -10 -2 -17 -11z"/>
<path d="M1685 750 c-3 -5 -1 -10 4 -10 6 0 11 5 11 10 0 6 -2 10 -4 10 -3 0 -8 -4 -11 -10z"/>
<path d="M2037 753 c-7 -6 5 -63 13 -63 14 0 19 27 7 39 -8 8 -8 11 1 11 7 0 12 4 12 8 0 8 -26 12 -33 5z"/>
<path d="M786 728 c3 -4 11 -5 19 -1 21 7 19 12 -4 10 -11 0 -18 -5 -15 -9z"/>
<path d="M965 730 c-3 -5 -1 -10 4 -10 6 0 11 5 11 10 0 6 -2 10 -4 10 -3 0 -8 -4 -11 -10z"/>
<path d="M1640 715 c-14 -16 -10 -18 14 -9 9 3 16 10 16 15 0 14 -16 11 -30 -6z"/>
<path d="M1666 699 c-10 -17 -16 -33 -13 -35 2 -3 14 11 25 31 12 19 18 35 14 35 -4 0 -16 -14 -26 -31z"/>
<path d="M1987 713 c-4 -3 -7 -11 -7 -17 0 -6 5 -5 12 2 6 6 9 14 7 17 -3 3 -9 2 -12 -2z"/>
<path d="M1037 696 c-3 -8 1 -17 10 -20 22 -9 24 -4 8 17 -10 14 -14 15 -18 3z"/>
<path d="M1697 703 c-3 -5 -10 -26 -16 -48 -9 -37 -9 -38 5 -20 27 35 38 59 23 50 -9 -6 -11 -3 -6 8 6 17 2 23 -6 10z"/>
<path d="M1785 689 c-9 -14 -2 -20 14 -10 8 6 9 11 3 15 -6 3 -14 1 -17 -5z"/>
<path d="M2024 680 c0 -12 7 -18 18 -17 10 1 18 4 18 7 0 3 -8 10 -18 16 -15 9 -18 8 -18 -6z"/>
<path d="M1750 650 c-8 -5 -11 -12 -7 -16 4 -4 13 -2 19 4 15 15 7 24 -12 12z"/>
<path d="M1780 643 c0 -13 5 -23 10 -23 13 0 13 11 0 30 -8 12 -10 11 -10 -7z"/>
<path d="M1000 625 c-19 -21 -22 -28 -11 -34 7 -5 10 -15 7 -22 -4 -8 -1 -5 8 5 8 10 13 23 9 29 -3 5 0 13 7 17 7 4 11 13 9 19 -3 8 -14 2 -29 -14z"/>
<path d="M1696 626 c-8 -14 -25 -26 -36 -28 -19 -3 -20 -5 -7 -22 13 -18 16 -16 45 28 17 25 27 46 23 46 -5 0 -16 -11 -25 -24z"/>
<path d="M1823 633 c-7 -3 -13 -9 -13 -14 0 -6 5 -7 10 -4 6 3 10 2 10 -3 0 -6 -6 -12 -14 -15 -8 -3 -20 -16 -27 -28 -12 -22 -11 -22 19 2 42 33 52 75 15 62z"/>
<path d="M1860 590 c0 -16 4 -30 9 -30 4 0 8 13 7 30 -1 39 -16 39 -16 0z"/>
<path d="M867 573 c-21 -19 -36 -37 -32 -41 3 -3 22 11 42 31 48 47 39 56 -10 10z"/>
<path d="M930 600 c0 -5 4 -10 9 -10 6 0 13 5 16 10 3 6 -1 10 -9 10 -9 0 -16 -4 -16 -10z"/>
<path d="M1040 606 c0 -2 9 -6 20 -9 11 -3 20 -1 20 4 0 5 -9 9 -20 9 -11 0 -20 -2 -20 -4z"/>
<path d="M1035 580 c-3 -5 -1 -10 4 -10 6 0 11 5 11 10 0 6 -2 10 -4 10 -3 0 -8 -4 -11 -10z"/>
<path d="M1398 583 c7 -3 16 -2 19 1 4 3 -2 6 -13 5 -11 0 -14 -3 -6 -6z"/>
<path d="M660 571 c0 -5 7 -11 15 -15 9 -3 15 0 15 9 0 8 -7 15 -15 15 -8 0 -15 -4 -15 -9z"/>
<path d="M1308 573 c7 -3 16 -2 19 1 4 3 -2 6 -13 5 -11 0 -14 -3 -6 -6z"/>
<path d="M1755 560 c-3 -5 -1 -10 4 -10 6 0 11 5 11 10 0 6 -2 10 -4 10 -3 0 -8 -4 -11 -10z"/>
<path d="M2010 530 c0 -5 5 -10 10 -10 6 0 10 5 10 10 0 6 -4 10 -10 10 -5 0 -10 -4 -10 -10z"/>
<path d="M2017 512 c-10 -2 -16 -9 -14 -15 6 -18 34 -20 40 -3 7 18 -1 24 -26 18z"/>
<path d="M680 479 c0 -5 5 -9 10 -9 6 0 10 -5 10 -11 0 -5 -4 -8 -9 -4 -5 3 -12 1 -16 -5 -3 -5 2 -10 12 -10 21 1 59 27 51 36 -10 9 -58 12 -58 3z"/>
<path d="M931 481 c-13 -8 -5 -41 10 -41 5 0 9 7 9 15 0 11 7 14 25 9 14 -3 25 -4 25 -1 0 10 -57 25 -69 18z"/>
<path d="M1987 473 c-4 -3 -7 -11 -7 -17 0 -6 5 -5 12 2 6 6 9 14 7 17 -3 3 -9 2 -12 -2z"/>
<path d="M825 440 c-3 -5 -2 -10 4 -10 5 0 13 5 16 10 3 6 2 10 -4 10 -5 0 -13 -4 -16 -10z"/>
<path d="M618 433 c7 -3 16 -2 19 1 4 3 -2 6 -13 5 -11 0 -14 -3 -6 -6z"/>
<path d="M715 430 c-3 -5 -1 -10 4 -10 6 0 11 5 11 10 0 6 -2 10 -4 10 -3 0 -8 -4 -11 -10z"/>
<path d="M770 430 c-13 -9 -13 -10 0 -10 13 0 13 -1 0 -10 -13 -9 -13 -11 0 -20 20 -13 39 -12 20 1 -12 8 -8 10 17 7 18 -3 30 -1 27 3 -2 4 2 10 8 13 7 3 2 4 -12 3 -14 -1 -29 3 -35 10 -7 9 -15 10 -25 3z"/>
<path d="M878 423 c7 -3 16 -2 19 1 4 3 -2 6 -13 5 -11 0 -14 -3 -6 -6z"/>
<path d="M671 411 c-10 -7 -7 -9 12 -8 14 1 23 5 20 10 -6 9 -15 9 -32 -2z"/>
<path d="M1420 410 c-9 -6 -10 -10 -3 -10 6 0 15 5 18 10 8 12 4 12 -15 0z"/>
<path d="M700 380 c8 -5 22 -10 30 -10 13 0 13 1 0 10 -8 5 -22 10 -30 10 -13 0 -13 -1 0 -10z"/>
<path d="M674 372 c4 -6 -6 -12 -21 -15 -16 -2 -7 -4 19 -3 26 0 46 1 45 2 -16 12 -48 23 -43 16z"/>
</g>
</svg>